<svg xmlns="http://www.w3.org/2000/svg" xml:space="preserve" viewBox="0 0 100 100">
  <path
    d="M88.2 0H12.1C5.6 0 0 6.2 0 12.7v76.1C0 95.3 5.6 100 12.1 100h76.1c6.6 0 11.8-4.7 11.8-11.2V12.7C100 6.2 94.8 0 88.2 0zm-2.3 14.3c1.9 0 3.4 1.5 3.4 3.4v11c0 1.9-1.5 3.4-3.4 3.4h-11c-1.9 0-3.4-1.5-3.4-3.4v-11c0-1.9 1.5-3.4 3.4-3.4h11zM50.3 31.7c10.6 0 19.2 8.6 19.2 19.1 0 10.6-8.6 19.1-19.2 19.1s-19.2-8.6-19.2-19.1c0-10.5 8.6-19.1 19.2-19.1zm39 54.6c0 1.5-1.6 3-3.2 3H14.5c-1.5 0-3.8-1.5-3.8-3V42.9H21c-.7 3.6-1.1 5.2-1.1 8 0 16.7 13.6 30.3 30.4 30.3 16.7 0 30.4-13.6 30.4-30.3 0-2.8-.4-4.4-1.1-8h9.7v43.4z"
  />
</svg>
