<svg xmlns="http://www.w3.org/2000/svg" xml:space="preserve" viewBox="0 0 100 100">
  <path
    d="M89.8 24.9c.1 1.1.1 2.2.1 3.3 0 33.4-20.6 71.8-58.4 71.8C20.3 100 9.4 96.1 0 88.7c1.6.2 3.3.3 4.9.3 9.2 0 18.2-3.8 25.5-10.8-8.8-.2-16.5-7.2-19.2-17.5 3.1.7 6.2.6 9.3-.4C10.9 57.8 4 47.5 4 35.5v-.3c2.9 2 6 3 9.3 3.2C4.3 30.9 1.5 16.1 7 4.6 17.4 20.4 32.7 30 49.2 31c-1.7-8.8.6-18 5.9-24.1 8.3-9.6 21.3-9.1 29 1.1 4.6-1.1 9-3.2 13-6.1-1.5 5.8-4.7 10.8-9 14 4.1-.6 8-1.9 11.8-4-2.7 5-6.1 9.4-10.1 13z"
  />
</svg>
