<svg
  xmlns="http://www.w3.org/2000/svg"
  xml:space="preserve"
  style="enable-background: new 0 0 121.6 100"
  viewBox="0 0 121.6 100"
>
  <path
    d="M109.3 24.9c.1 1.1.1 2.2.1 3.3 0 33.4-25.1 71.8-71 71.8-13.6 0-26.8-3.9-38.2-11.3 2 .2 4 .4 5.9.4 11.2 0 22.1-3.8 31-10.8-10.7-.2-20-7.2-23.3-17.5 3.7.7 7.6.6 11.3-.4-11.6-2.4-20-12.7-20-24.7v-.3c3.5 2 7.3 3 11.3 3.2-11-7.7-14.3-22.5-7.7-34C21.3 20.4 40 30 60.1 31c-2-8.8.7-18 7.2-24.1 10-9.6 25.8-9.1 35.3 1.1 5.6-1.1 10.9-3.2 15.8-6.1-1.9 5.8-5.8 10.8-11 14 4.9-.6 9.8-1.9 14.3-4-3.3 5-7.5 9.4-12.4 13z"
  />
</svg>
